<svg width="112" height="109" viewBox="0 0 112 109" fill="none" xmlns="http://www.w3.org/2000/svg">
<path d="M48.8475 39.1271C40.3458 45.7358 23.4068 48.0234 16 48.3411C24.8023 49.2943 44.2102 52.9799 51.4237 60.097C58.6373 67.214 62.8023 86.9978 63.9831 96C64.9492 91.8696 67.5254 64.5452 77.8305 57.5552C86.0746 51.9632 103.379 49.0825 111 48.3411C91.678 46.1171 81.3729 41.6689 77.8305 39.1271C70.2374 33.6787 64.9492 11.9086 63.9831 1C62.6949 12.4381 59.4746 30.8662 48.8475 39.1271Z" fill="#5F7A69" stroke="#5F7A69"/>
<path d="M55.5732 43.4289C50.9739 47.0041 41.8102 48.2416 37.8032 48.4135C42.5651 48.9292 53.0645 50.923 56.9669 54.7732C60.8693 58.6235 63.1225 69.3261 63.7613 74.1962C64.2839 71.9617 65.6776 57.1796 71.2525 53.3982C75.7124 50.373 85.0736 48.8146 89.1967 48.4135C78.7438 47.2103 73.1689 44.8039 71.2525 43.4289C67.1448 40.4814 64.2839 28.7041 63.7613 22.8027C63.0644 28.9906 61.3223 38.9599 55.5732 43.4289Z" fill="#5F7A69" stroke="white"/>
<path d="M18.9797 87.1304C14.3261 83.513 5.05424 82.2609 1 82.087C5.81808 81.5652 16.4414 79.5478 20.3898 75.6522C24.3383 71.7565 26.6181 60.9275 27.2644 56C27.7932 58.2609 29.2034 73.2174 34.8441 77.0435C39.3566 80.1043 48.8283 81.6812 53 82.087C42.4237 83.3043 36.7831 85.7391 34.8441 87.1304C30.6879 90.1127 27.7932 102.029 27.2644 108C26.5593 101.739 24.7966 91.6522 18.9797 87.1304Z" fill="#5F7A69" stroke="#5F7A69"/>
</svg>
