<svg width="242" height="246" viewBox="0 0 242 246" fill="none" xmlns="http://www.w3.org/2000/svg">
<path d="M169.391 2.91767C185.077 8.12738 196.079 22.0519 206.629 35.4047C207.148 36.0617 207.666 36.7172 208.184 37.3703C218.298 50.1367 224.91 64.9505 230.577 80.3327C236.121 95.3814 240.989 110.57 241 126.416C241.011 142.477 236.445 157.989 230.646 173.13C224.531 189.092 217.96 204.967 206.263 217.136C193.993 229.903 179.304 242.029 162.078 244.651C153.598 245.941 145.459 243.476 137.133 240.215C135.385 239.53 133.625 238.808 131.852 238.082C125.264 235.38 118.508 232.609 111.524 231.4C104.589 230.199 97.4506 230.379 90.4696 230.556C88.8857 230.596 87.3099 230.636 85.7464 230.66C77.2306 230.788 69.0226 230.437 61.4031 227.19C45.3906 220.367 30.8205 208.702 22.401 193.622C18.2976 186.273 17.2271 178.02 16.767 169.372C16.6564 167.293 16.5813 165.186 16.5058 163.065C16.2697 156.434 16.0287 149.665 14.6798 143.172C13.3182 136.619 10.6908 130.22 8.12163 123.963C7.24822 121.835 6.38153 119.725 5.57356 117.63C2.35923 109.295 0.0268129 101.126 1.40333 92.6592C2.78913 84.1353 6.98203 76.6256 12.3198 69.5263C15.8688 64.8062 19.8691 60.3325 23.8595 55.8699C25.8991 53.5889 27.9362 51.3107 29.9091 49.004C30.1438 48.7296 30.3786 48.4551 30.6133 48.1805C41.6271 35.2987 52.7286 22.3141 67.7806 15.143C75.3233 11.5495 83.4557 10.0934 91.8721 9.28984C95.5209 8.94148 99.2057 8.71702 102.916 8.49098C103.487 8.45624 104.057 8.42147 104.629 8.38621C108.91 8.12197 113.217 7.83039 117.485 7.31875C121.927 6.78623 126.383 5.89367 130.805 4.94989C131.694 4.76027 132.581 4.56872 133.466 4.37752C136.999 3.61421 140.506 2.85663 144 2.25113C152.736 0.737398 161.231 0.20746 169.391 2.91767Z" stroke="#607B6A" stroke-width="2"/>
</svg>
