<svg width="44" height="44" viewBox="0 0 44 44" fill="none" xmlns="http://www.w3.org/2000/svg">
<path d="M37.6114 22.4868L25.2364 34.8618C25.1074 34.9908 24.9324 35.0633 24.75 35.0633C24.5676 35.0633 24.3926 34.9908 24.2636 34.8618C24.1346 34.7328 24.0621 34.5578 24.0621 34.3754C24.0621 34.1929 24.1346 34.018 24.2636 33.889L35.4647 22.6879H6.875C6.69266 22.6879 6.5178 22.6155 6.38886 22.4865C6.25993 22.3576 6.1875 22.1827 6.1875 22.0004C6.1875 21.818 6.25993 21.6432 6.38886 21.5142C6.5178 21.3853 6.69266 21.3129 6.875 21.3129H35.4647L24.2636 10.1118C24.1346 9.98279 24.0621 9.80782 24.0621 9.62538C24.0621 9.44294 24.1346 9.26798 24.2636 9.13898C24.3926 9.00997 24.5676 8.9375 24.75 8.9375C24.9324 8.9375 25.1074 9.00997 25.2364 9.13898L37.6114 21.514C37.6753 21.5778 37.726 21.6536 37.7606 21.7371C37.7952 21.8206 37.813 21.91 37.813 22.0004C37.813 22.0907 37.7952 22.1802 37.7606 22.2637C37.726 22.3471 37.6753 22.4229 37.6114 22.4868Z" fill="black"/>
</svg>
