<svg width="29" height="29" viewBox="0 0 29 29" fill="none" xmlns="http://www.w3.org/2000/svg">
<g clip-path="url(#clip0_19_11)">
<path d="M14.5 28.0332C12.7228 28.0332 10.963 27.6832 9.32103 27.0031C7.67909 26.3229 6.18718 25.3261 4.9305 24.0694C3.67381 22.8127 2.67695 21.3208 1.99684 19.6789C1.31672 18.0369 0.966675 16.2771 0.966675 14.4999C0.966675 12.7227 1.31672 10.9628 1.99684 9.3209C2.67695 7.67896 3.67381 6.18706 4.9305 4.93037C6.18718 3.67369 7.67909 2.67683 9.32103 1.99672C10.963 1.3166 12.7228 0.966553 14.5 0.966553C18.0893 0.966553 21.5315 2.39238 24.0695 4.93037C26.6075 7.46837 28.0333 10.9106 28.0333 14.4999C28.0333 18.0891 26.6075 21.5314 24.0695 24.0694C21.5315 26.6074 18.0893 28.0332 14.5 28.0332ZM14.5 28.0332V12.5666C14.5 11.541 14.9074 10.5575 15.6325 9.83241C16.3577 9.10727 17.3412 8.69989 18.3667 8.69989H19.3333M9.66668 16.4332H19.3333" stroke="black"/>
</g>
<defs>
<clipPath id="clip0_19_11">
<rect width="29" height="29" fill="white"/>
</clipPath>
</defs>
</svg>
