<svg width="24" height="24" viewBox="0 0 24 24" fill="none" xmlns="http://www.w3.org/2000/svg">
<path d="M1 12C1 6.81495 1 4.22127 2.61063 2.61063C4.22127 1 6.81379 1 12 1C17.1851 1 19.7788 1 21.3894 2.61063C23 4.22127 23 6.81379 23 12C23 17.1851 23 19.7788 21.3894 21.3894C19.7788 23 17.1862 23 12 23C6.81495 23 4.22127 23 2.61063 21.3894C1 19.7788 1 17.1862 1 12Z" stroke="black" stroke-width="1.5" stroke-linecap="round" stroke-linejoin="round"/>
<path d="M18.3777 5.63184H18.3661M17.2105 12.0003C17.2105 13.3822 16.6616 14.7075 15.6844 15.6847C14.7072 16.6618 13.3819 17.2108 12 17.2108C10.6181 17.2108 9.29275 16.6618 8.31559 15.6847C7.33842 14.7075 6.78946 13.3822 6.78946 12.0003C6.78946 10.6183 7.33842 9.29303 8.31559 8.31586C9.29275 7.3387 10.6181 6.78973 12 6.78973C13.3819 6.78973 14.7072 7.3387 15.6844 8.31586C16.6616 9.29303 17.2105 10.6183 17.2105 12.0003Z" stroke="black" stroke-width="1.5" stroke-linecap="round" stroke-linejoin="round"/>
</svg>
