<svg width="46" height="40" viewBox="0 0 46 40" fill="none" xmlns="http://www.w3.org/2000/svg">
<path d="M45.75 12.7188C45.75 26.9375 24.6677 38.4466 23.7698 38.9219C23.5332 39.0492 23.2687 39.1158 23 39.1158C22.7313 39.1158 22.4668 39.0492 22.2302 38.9219C21.3323 38.4466 0.25 26.9375 0.25 12.7188C0.253763 9.37984 1.58181 6.17875 3.94278 3.81778C6.30375 1.45681 9.50484 0.128763 12.8438 0.125C17.0383 0.125 20.7108 1.92875 23 4.97766C25.2892 1.92875 28.9617 0.125 33.1562 0.125C36.4952 0.128763 39.6962 1.45681 42.0572 3.81778C44.4182 6.17875 45.7462 9.37984 45.75 12.7188Z" fill="#C00000"/>
</svg>
