<svg width="63" height="63" viewBox="0 0 63 63" fill="none" xmlns="http://www.w3.org/2000/svg">
<path d="M44.1612 22.0834L44.1612 39.5843C44.1612 39.7667 44.0887 39.9417 43.9597 40.0707C43.8307 40.1997 43.6558 40.2722 43.4733 40.2722C43.2909 40.2722 43.1159 40.1997 42.9869 40.0707C42.8579 39.9417 42.7854 39.7667 42.7854 39.5843L42.7854 23.7435L22.5695 43.9595C22.4405 44.0884 22.2657 44.1609 22.0833 44.1609C21.901 44.1609 21.7261 44.0884 21.5972 43.9595C21.4683 43.8306 21.3958 43.6557 21.3958 43.4734C21.3958 43.291 21.4683 43.1162 21.5972 42.9872L41.8132 22.7713L25.9724 22.7713C25.79 22.7713 25.615 22.6988 25.486 22.5698C25.357 22.4408 25.2845 22.2658 25.2845 22.0834C25.2845 21.901 25.357 21.726 25.486 21.597C25.615 21.468 25.79 21.3955 25.9724 21.3955L43.4733 21.3955C43.5637 21.3955 43.6531 21.4132 43.7366 21.4478C43.8201 21.4823 43.896 21.533 43.9598 21.5969C44.0237 21.6608 44.0744 21.7366 44.1089 21.8201C44.1435 21.9036 44.1613 21.993 44.1612 22.0834Z" fill="black"/>
</svg>
