<svg width="281" height="304" viewBox="0 0 281 304" fill="none" xmlns="http://www.w3.org/2000/svg">
<path d="M209.547 40.5323C214.69 43.8672 220.127 46.8507 225.565 49.7635C226.466 50.2461 227.367 50.7267 228.267 51.2066C232.807 53.6287 237.315 56.0335 241.658 58.6008C252.062 64.7509 261.394 71.7634 267.649 81.9127C273.928 92.0995 276.479 103.585 277.542 115.619C278.234 123.463 278.292 131.457 278.35 139.459C278.381 143.781 278.412 148.105 278.543 152.41C278.683 157.015 278.953 161.637 279.223 166.258C279.678 174.063 280.133 181.861 279.964 189.558C279.696 201.752 277.851 213.454 271.989 223.979C266.142 234.478 257.045 241.974 246.747 248.509C241.613 251.767 236.203 254.773 230.762 257.796L230.717 257.821C225.27 260.847 219.793 263.891 214.588 267.201C209.668 270.329 204.847 273.675 200.052 277.003C199.675 277.265 199.299 277.526 198.923 277.786C193.749 281.376 188.595 284.925 183.333 288.167C172.81 294.651 161.912 299.87 149.71 301.681C123.789 305.528 96.5345 300.932 73.6335 288.243C50.8238 275.605 34.8524 253.825 22.0343 230.875C9.51969 208.468 -0.506278 183.916 1.18716 158.556C2.0024 146.347 6.51319 135.239 12.3564 124.415C15.2782 119.002 18.5228 113.678 21.7965 108.325L22.0902 107.845C25.2628 102.658 28.454 97.4398 31.3681 92.1222C34.0821 87.1695 36.6307 82.106 39.1651 77.0708C39.435 76.5346 39.7047 75.9987 39.9745 75.4633C42.7808 69.8933 45.5912 64.3727 48.6283 59.048C54.7021 48.3992 61.6541 38.5874 71.1918 30.8472C91.8402 14.0904 116.97 -0.655787 143.159 1.15029C156.015 2.03694 167.017 8.20262 177.635 16.0331C181.867 19.1539 186.013 22.5196 190.187 25.9085C191.252 26.7727 192.318 27.6384 193.389 28.502C198.643 32.7419 203.976 36.9193 209.547 40.5323Z" stroke="#607B6A" stroke-width="2"/>
</svg>
