<svg xmlns="http://www.w3.org/2000/svg"><symbol id="icon-icon_facebook" viewBox="0 0 40 40"><path d="M36.667 20C36.667 10.8 29.2 3.334 20 3.334 10.8 3.334 3.334 10.8 3.334 20c0 8.067 5.733 14.783 13.333 16.334V25h-3.334v-5h3.334v-4.166A5.84 5.84 0 0 1 22.5 10h4.167v5h-3.334c-.916 0-1.666.75-1.666 1.667V20h5v5h-5v11.584c8.416-.834 15-7.934 15-16.584Z"/></symbol><symbol id="icon-icon_linkedin" viewBox="0 0 40 40"><path d="M31.667 5A3.333 3.333 0 0 1 35 8.333v23.334A3.333 3.333 0 0 1 31.667 35H8.333A3.333 3.333 0 0 1 5 31.667V8.333A3.333 3.333 0 0 1 8.333 5h23.334Zm-.834 25.833V22a5.433 5.433 0 0 0-5.433-5.433c-1.417 0-3.067.866-3.867 2.166v-1.85h-4.65v13.95h4.65v-8.216a2.326 2.326 0 0 1 2.317-2.334 2.333 2.333 0 0 1 2.333 2.334v8.216h4.65ZM11.467 14.267a2.8 2.8 0 0 0 2.8-2.8 2.81 2.81 0 0 0-2.8-2.817 2.817 2.817 0 0 0-2.817 2.817 2.81 2.81 0 0 0 2.817 2.8Zm2.316 16.566v-13.95H9.167v13.95h4.616Z"/></symbol></svg>