<svg xmlns="http://www.w3.org/2000/svg"><symbol id="icon-icon_behance" viewBox="0 0 40 40"><path d="M16.418 18.371c.34-.246.504-.652.504-1.21a1.573 1.573 0 0 0-.16-.767 1.231 1.231 0 0 0-.453-.464 1.75 1.75 0 0 0-.649-.235 3.782 3.782 0 0 0-.754-.066H12.16v3.113h2.973c.512.004.945-.12 1.285-.37Zm.46 2.813c-.382-.293-.894-.438-1.53-.438h-3.196v3.672h3.133c.293 0 .563-.027.824-.082.248-.048.484-.144.696-.281.199-.13.36-.305.48-.532.117-.226.176-.515.176-.863 0-.691-.195-1.18-.582-1.476ZM20 2.5C10.336 2.5 2.5 10.336 2.5 20S10.336 37.5 20 37.5 37.5 29.664 37.5 20 29.664 2.5 20 2.5Zm3.379 11.207h5.406v1.316H23.38v-1.316ZM20 24.562c-.253.48-.614.895-1.055 1.211a4.64 4.64 0 0 1-1.515.692 6.535 6.535 0 0 1-1.742.223h-6.47V13.363h6.29c.637 0 1.215.059 1.742.168.523.11.969.297 1.344.551.37.254.664.594.87 1.016.204.418.31.941.31 1.562 0 .672-.153 1.227-.458 1.676-.308.45-.753.812-1.359 1.098.824.234 1.43.652 1.828 1.238.406.594.606 1.305.606 2.14 0 .68-.13 1.262-.391 1.75ZM30.89 22.5h-6.968c0 .758.262 1.484.656 1.875.399.387.969.582 1.715.582.539 0 .996-.137 1.387-.406.386-.27.62-.555.707-.852h2.336c-.375 1.16-.946 1.988-1.72 2.488-.765.5-1.702.75-2.792.75a5.633 5.633 0 0 1-2.059-.363 4.377 4.377 0 0 1-1.558-1.035 4.735 4.735 0 0 1-.98-1.61 5.857 5.857 0 0 1-.348-2.054 5.7 5.7 0 0 1 .355-2.02 4.691 4.691 0 0 1 2.574-2.69 5.071 5.071 0 0 1 2.012-.392c.82 0 1.531.157 2.148.477a4.36 4.36 0 0 1 1.508 1.281c.395.535.672 1.145.848 1.832.168.676.227 1.387.18 2.137Zm-4.765-3.734c-.422 0-.777.074-1.05.218-.274.145-.5.325-.673.532-.163.2-.284.43-.355.68a2.92 2.92 0 0 0-.121.632h4.316c-.062-.676-.297-1.176-.61-1.527-.327-.348-.855-.535-1.507-.535Z"/></symbol><symbol id="icon-icon_facebook" viewBox="0 0 40 40"><path d="M36.667 20C36.667 10.8 29.2 3.334 20 3.334 10.8 3.334 3.334 10.8 3.334 20c0 8.067 5.733 14.783 13.333 16.334V25h-3.334v-5h3.334v-4.166A5.84 5.84 0 0 1 22.5 10h4.167v5h-3.334c-.916 0-1.666.75-1.666 1.667V20h5v5h-5v11.584c8.416-.834 15-7.934 15-16.584Z"/></symbol><symbol id="icon-icon_fleche" viewBox="0 0 44 44"><path d="M37.611 22.487 25.236 34.862a.688.688 0 1 1-.972-.973l11.2-11.201H6.876a.687.687 0 1 1 0-1.375h28.59L24.264 10.112a.688.688 0 0 1 .972-.973l12.375 12.375a.687.687 0 0 1 0 .973Z"/></symbol><symbol id="icon-icon_instagram" viewBox="0 0 40 40"><path d="M13 3.333h14c5.334 0 9.667 4.333 9.667 9.667v14A9.666 9.666 0 0 1 27 36.666H13c-5.333 0-9.666-4.333-9.666-9.666V13A9.667 9.667 0 0 1 13 3.333Zm-.333 3.333a6 6 0 0 0-6 6v14.667c0 3.317 2.683 6 6 6h14.667a6 6 0 0 0 6-6V12.666c0-3.316-2.684-6-6-6H12.667Zm16.083 2.5a2.083 2.083 0 1 1 0 4.167 2.083 2.083 0 0 1 0-4.167Zm-8.75 2.5a8.333 8.333 0 1 1 0 16.667 8.333 8.333 0 0 1 0-16.667ZM20 15a5 5 0 1 0 0 10 5 5 0 0 0 0-10Z"/></symbol><symbol id="icon-icon_linkedin" viewBox="0 0 40 40"><path d="M31.667 5A3.333 3.333 0 0 1 35 8.333v23.334A3.333 3.333 0 0 1 31.667 35H8.333A3.333 3.333 0 0 1 5 31.667V8.333A3.333 3.333 0 0 1 8.333 5h23.334Zm-.834 25.833V22a5.433 5.433 0 0 0-5.433-5.433c-1.417 0-3.067.866-3.867 2.166v-1.85h-4.65v13.95h4.65v-8.216a2.326 2.326 0 0 1 2.317-2.334 2.333 2.333 0 0 1 2.333 2.334v8.216h4.65ZM11.467 14.267a2.8 2.8 0 0 0 2.8-2.8 2.81 2.81 0 0 0-2.8-2.817 2.817 2.817 0 0 0-2.817 2.817 2.81 2.81 0 0 0 2.817 2.8Zm2.316 16.566v-13.95H9.167v13.95h4.616Z"/></symbol><symbol id="icon-icon_tab" viewBox="0 0 63 63"><path d="M25.725 27.806c-3.35 2.605-10.027 3.506-12.946 3.631 3.47.376 11.119 1.829 13.962 4.634 2.843 2.805 4.484 10.602 4.95 14.15.38-1.628 1.396-12.397 5.457-15.152 3.25-2.204 10.069-3.34 13.073-3.632-7.615-.876-11.677-2.63-13.073-3.631-2.993-2.147-5.077-10.727-5.458-15.027-.507 4.508-1.777 11.771-5.965 15.027ZM7.255 47.168C5.635 45.909 2.41 45.474 1 45.413c1.676-.181 5.372-.883 6.745-2.238 1.374-1.356 2.167-5.123 2.392-6.837.184.787.674 5.99 2.637 7.32 1.57 1.066 4.864 1.614 6.316 1.755-3.68.424-5.642 1.27-6.316 1.755-1.446 1.037-2.453 5.182-2.637 7.26-.245-2.178-.859-5.687-2.882-7.26Z"/><path d="M22.091 25.482C16.633 29.725 5.756 31.194 1 31.398c5.652.612 18.114 2.979 22.746 7.549C28.378 43.517 31.052 56.22 31.81 62c.62-2.652 2.275-20.197 8.892-24.686 5.293-3.59 16.404-5.44 21.298-5.916-12.407-1.428-19.024-4.284-21.298-5.916C35.826 21.983 32.43 8.004 31.81 1c-.827 7.344-2.895 19.177-9.718 24.482ZM18.197 54.923c-.64-.498-1.915-.67-2.473-.694.663-.072 2.124-.35 2.667-.885.543-.536.857-2.025.945-2.703.073.311.267 2.368 1.043 2.894.62.421 1.923.638 2.497.694-1.455.168-2.23.502-2.497.694-.572.41-.97 2.049-1.043 2.87-.097-.861-.34-2.248-1.14-2.87Z"/></symbol></svg>